<svg width="179" height="22" viewBox="0 0 179 22" fill="none" xmlns="http://www.w3.org/2000/svg">
<g clip-path="url(#clip0_575_1842)">
<path d="M67.8066 4.64896V15.0292C67.8066 17.3301 65.857 19.1933 63.4495 19.1933C61.0421 19.1933 59.0925 17.3301 59.0925 15.0292V4.64896H56.9153V15.189C56.9153 18.6378 59.8411 21.4339 63.4495 21.4339C67.058 21.4339 69.9837 18.6378 69.9837 15.189V4.64896H67.8066Z" fill="#18345E"/>
<path d="M91.9445 19.5314H81.0176V13.9888H89.101V12.0915H81.0176V6.54366H91.8732V4.64896H81.0176H79.0323V6.54366V12.0915V13.9888V19.5314V21.4287V21.4339H81.0176V21.4287H91.9445V19.5314Z" fill="#18345E"/>
<path d="M105.994 4.64896H100.453V21.054H105.994C110.733 21.054 114.577 17.3825 114.577 12.8515C114.577 8.32043 110.735 4.64896 105.994 4.64896ZM112.397 13.9862C112.397 16.9632 109.872 19.3768 106.757 19.3768H102.633V6.60131H106.757C109.872 6.60131 112.397 9.01489 112.397 11.9919V13.9862Z" fill="#18345E"/>
<path d="M120.453 21.0513L128.611 4.64896H129.603L137.61 21.0513H135.383L129.033 8.05051L122.776 21.0513H120.453Z" fill="#18345E"/>
<path d="M161.367 21.0513L169.524 4.64896H170.517L178.526 21.0513H176.297L169.946 8.05051L163.689 21.0513H161.367Z" fill="#18345E"/>
<path d="M156.664 4.64896H142.493V6.60131H148.416V21.0513H150.577V6.60131H156.664V4.64896Z" fill="#18345E"/>
<path d="M45.1878 13.8263C47.3046 13.373 48.8867 11.57 48.8867 9.4106C48.8867 6.90792 46.7644 4.88219 44.1485 4.88219H35.4756V21.434H37.6089V13.9416H42.9942C44.0827 14.5129 46.0076 16.2032 47.0551 21.1745H49.2679C49.2679 21.1745 47.9188 14.9558 45.1905 13.8289L45.1878 13.8263ZM37.6363 12.2042V6.61704H43.9402C45.5552 6.61704 46.8631 7.86706 46.8631 9.4106C46.8631 10.9541 45.5552 12.2042 43.9402 12.2042H37.6363Z" fill="#18345E"/>
<path d="M8.46366 17.9616C7.92649 17.9616 7.49072 17.545 7.49072 17.0313V8.61132C7.49072 8.09768 7.92649 7.681 8.46366 7.681C9.00083 7.681 9.4366 8.09768 9.4366 8.61132V17.0313C9.4366 17.545 9.00083 17.9616 8.46366 17.9616Z" fill="#18345E"/>
<path d="M15.2309 17.9616C14.6937 17.9616 14.2579 17.545 14.2579 17.0313V4.55462C14.2579 4.04098 14.6937 3.6243 15.2309 3.6243C15.768 3.6243 16.2038 4.04098 16.2038 4.55462V17.0313C16.2038 17.545 15.768 17.9616 15.2309 17.9616Z" fill="#18345E"/>
<path d="M16.9287 22H7.22472C3.53124 22 0.526001 19.1278 0.526001 15.5979V12.0627C0.526001 11.549 0.96198 11.1323 1.49941 11.1323C2.03685 11.1323 2.47282 11.549 2.47282 12.0627V15.5979C2.47282 18.1032 4.6061 20.142 7.22746 20.142H16.9314C19.5528 20.142 21.6861 18.1032 21.6861 15.5979V0.930316C21.6861 0.416677 22.122 0 22.6595 0C23.1969 0 23.6329 0.416677 23.6329 0.930316V15.5979C23.6329 19.1278 20.6276 22 16.9342 22H16.9287Z" fill="#63686D"/>
<path d="M1.51569 7.70197C2.02546 7.70197 2.4667 8.09244 2.4667 8.61132C2.4667 9.09875 2.02546 9.52067 1.51569 9.52067C0.9703 9.52329 0.529053 9.09875 0.529053 8.61132C0.529053 8.09244 0.9703 7.70197 1.51569 7.70197Z" fill="#18345E"/>
</g>
<defs>
<clipPath id="clip0_575_1842">
<rect width="178" height="22" fill="white" transform="translate(0.526001)"/>
</clipPath>
</defs>
</svg>
