<svg width="32" height="33" viewBox="0 0 32 33" fill="none" xmlns="http://www.w3.org/2000/svg">
<rect y="0.526123" width="32" height="32" rx="16" fill="#0091EA"/>
<path d="M14.3867 9.8595L15.284 10.5995C15.7613 10.9935 16 11.1902 16 11.4355H15.3333C12.8193 11.4355 11.562 11.4355 10.7813 12.2162C10.0007 12.9968 10 14.2542 10 16.7688V17.1928M12.6667 18.5262C12.6667 20.7262 12.6667 21.8262 13.35 22.5095C14.0333 23.1928 15.1333 23.1928 17.3333 23.1928C19.5333 23.1928 20.6333 23.1928 21.3167 22.5095C22 21.8262 22 20.7262 22 18.5262C22 16.3262 22 15.2262 21.3167 14.5428C20.6333 13.8595 19.5333 13.8595 17.3333 13.8595C15.1333 13.8595 14.0333 13.8595 13.35 14.5428C12.6667 15.2262 12.6667 16.3262 12.6667 18.5262Z" stroke="white" stroke-width="1.5" stroke-linecap="round" stroke-linejoin="round"/>
</svg>
